<?xml version="1.0"?>
<svg xmlns="http://www.w3.org/2000/svg" height="16" width="13.559" version="1.1" viewBox="-1.3557 -1.3557 2.3950344 2.8281267">
<g transform="matrix(0.06258302,0,0,0.06258302,-1.3689842,-1.3557)">
<path fill="#003087" d="M32.606,3.4075c-2.092-2.385-5.875-3.4075-10.713-3.4075h-14.044c-0.99,0-1.8312,0.72-1.9862,1.6962l-5.8475,37.086c-0.11625,0.73125,0.45,1.3938,1.1912,1.3938h8.67l2.1775-13.811-0.0675,0.4325c0.155-0.97625,0.99-1.6962,1.9788-1.6962h4.12c8.0938,0,14.431-3.2875,16.282-12.798,0.055-0.28125,0.1025-0.555,0.14375-0.8225,0.55125-3.515-0.004-5.9075-1.905-8.0738"/>
<path fill="#003087" d="M32.606,3.4075c-2.092-2.385-5.875-3.4075-10.713-3.4075h-14.044c-0.99,0-1.8312,0.72-1.9862,1.6962l-5.8475,37.086c-0.11625,0.73125,0.45,1.3938,1.1912,1.3938h8.67l2.1775-13.811-0.0675,0.4325c0.155-0.97625,0.99-1.6962,1.9788-1.6962h4.12c8.0938,0,14.431-3.2875,16.282-12.798,0.055-0.28125,0.1025-0.555,0.14375-0.8225,0.55125-3.515-0.004-5.9075-1.905-8.0738"/>
<path fill="#002f86" d="m14.394,11.528c0.0925-0.5875,0.47-1.0688,0.9775-1.3125,0.23125-0.11,0.48875-0.17125,0.75875-0.17125h11.01c1.3038,0,2.52,0.085,3.6312,0.26375,0.31875,0.0512,0.6275,0.11,0.9275,0.1775,0.3,0.0662,0.59125,0.14125,0.87375,0.22375,0.14125,0.0412,0.28,0.0838,0.41625,0.12875,0.54625,0.1825,1.055,0.395,1.5225,0.64375,0.55125-3.5162-0.004-5.9075-1.905-8.0738-2.0938-2.385-5.875-3.4075-10.714-3.4075h-14.045c-0.98875,0-1.83,0.72-1.985,1.6962l-5.8475,37.085c-0.11625,0.7325,0.45,1.3938,1.19,1.3938h8.6712l2.1775-13.811,2.34-14.836z"/>
<path fill="#009cde" d="m34.512,11.481,0,0c-0.0425,0.26875-0.0888,0.54125-0.14375,0.8225-1.8512,9.5088-8.1888,12.798-16.282,12.798h-4.1212c-0.98875,0-1.8238,0.72-1.9775,1.6962l-2.11,13.378-0.59875,3.795c-0.10125,0.64,0.39375,1.22,1.0412,1.22h7.3088c0.865,0,1.6012-0.63,1.7362-1.4838l0.0713-0.3725,1.3775-8.73,0.0888-0.4825c0.135-0.85375,0.87125-1.4838,1.7362-1.4838h1.0938c7.08,0,12.624-2.8762,14.244-11.195,0.67625-3.4762,0.32625-6.3788-1.4625-8.4175-0.5425-0.6175-1.2162-1.1275-2.0012-1.5438"/>
<path fill="#012069" d="m32.573,10.709c-0.2825-0.0825-0.57375-0.1575-0.87375-0.22375-0.3-0.0663-0.61-0.125-0.9275-0.17625-1.1125-0.18-2.3275-0.265-3.6325-0.265h-11.009c-0.27125,0-0.52875,0.0613-0.75875,0.1725-0.50875,0.24375-0.885,0.72375-0.9775,1.3125l-2.34,14.836-0.0675,0.4325c0.15375-0.97625,0.98875-1.6962,1.9775-1.6962h4.1212c8.0938,0,14.431-3.2875,16.282-12.798,0.055-0.28125,0.10125-0.55375,0.14375-0.8225-0.46875-0.2475-0.97625-0.46125-1.5225-0.6425-0.13625-0.045-0.275-0.0888-0.41625-0.13"/>
</g>
</svg>