<?xml version="1.0"?>
<svg xmlns="http://www.w3.org/2000/svg" height="12" width="11.25" version="1.1"><g transform="matrix(0.85714286,0,0,0.85714286,-102.13011,-335.2084)">
<path fill="#b3b3b3" d="m129.65,393.43c1.0454,0,1.9837-0.56905,2.625-0.99949v8.1442c-0.64132,0.43047-1.5796,0.99955-2.625,0.99955s-1.9837-0.30994-2.625-0.74041c-0.64132-0.4304-1.5796-0.74034-2.625-0.74034s-1.9836,0.53206-2.625,0.96245v-8.1442c0.64135-0.43044,1.5796-0.9625,2.625-0.9625s1.9837,0.30991,2.625,0.74035c0.64131,0.43046,1.5796,0.74039,2.625,0.74039zm-9.625-2.3557c0.48324,0,0.875,0.39175,0.875,0.875v13.125h-1.75v-13.125c0-0.48325,0.39175-0.875,0.875-0.875z"/>
</g>
</svg>