<?xml version="1.0"?>
<svg xmlns="http://www.w3.org/2000/svg" height="12" width="13.824" version="1.1">
<g transform="translate(-315.27669,-341.2283)">
<g transform="matrix(0.09468283,0,0,0.09589107,311.96279,340.22825)" fill="#b3b3b3">
<path d="m147.11,83.428h-5.215c-0.761,0-1.386,0.244-1.873,0.733-0.49,0.488-0.734,1.113-0.734,1.874v26.071c0,3.585-1.275,6.653-3.828,9.206s-5.622,3.828-9.207,3.828h-67.796c-3.585,0-6.654-1.275-9.207-3.828s-3.829-5.621-3.829-9.206v-67.79c0-3.585,1.276-6.653,3.829-9.206s5.622-3.829,9.207-3.829h57.356c0.762,0,1.387-0.245,1.875-0.733,0.488-0.489,0.732-1.113,0.732-1.874v-5.215c0-0.76-0.244-1.385-0.732-1.873-0.488-0.489-1.113-0.733-1.875-0.733h-57.356c-6.463,0-11.99,2.295-16.58,6.884-4.589,4.59-6.884,10.117-6.884,16.58v67.786c0,6.463,2.295,11.99,6.884,16.578,4.59,4.59,10.117,6.886,16.58,6.886h67.786c6.463,0,11.99-2.296,16.58-6.886,4.59-4.588,6.885-10.115,6.885-16.578v-26.074c0-0.761-0.244-1.386-0.734-1.875-0.489-0.489-1.114-0.733-1.874-0.733z"/>
<path d="m179.45,11.977c-1.032-1.032-2.256-1.548-3.667-1.548h-41.71c-1.412,0-2.635,0.516-3.666,1.548-1.032,1.032-1.549,2.254-1.549,3.666s0.517,2.635,1.549,3.667l14.339,14.339-53.12,53.121c-0.544,0.543-0.815,1.168-0.815,1.873,0,0.707,0.272,1.332,0.815,1.875l9.288,9.287c0.543,0.543,1.168,0.814,1.874,0.814s1.331-0.271,1.874-0.814l53.12-53.12,14.34,14.339c1.031,1.032,2.254,1.548,3.666,1.548s2.635-0.516,3.667-1.548c1.03-1.033,1.55-2.255,1.55-3.667v-41.715c0-1.413-0.518-2.634-1.549-3.666z"/>
</g>
</g>
</svg>