<?xml version="1.0" encoding="UTF-8" standalone="no"?>
<!-- Created with Inkscape (http://www.inkscape.org/) -->
<svg xmlns:rdf="http://www.w3.org/1999/02/22-rdf-syntax-ns#" xmlns="http://www.w3.org/2000/svg" height="425" width="250.02" version="1.1" xmlns:cc="http://creativecommons.org/ns#" xmlns:dc="http://purl.org/dc/elements/1.1/">
<defs>
<clipPath id="clipPath3198" clipPathUnits="userSpaceOnUse">
<rect transform="matrix(0.70542721,-0.70878237,0.70542721,0.70878237,0,0)" height="11.026" width="11.026" y="-540.21" x="-55.728" fill="#000"/>
</clipPath>
<filter id="filter3041" height="1" width="1" color-interpolation-filters="sRGB" y="0" x="0">
<feColorMatrix values="0" type="saturate"/>
</filter>
</defs>
<metadata>
<rdf:RDF>
<cc:Work rdf:about="">
<dc:format>image/svg+xml</dc:format>
<dc:type rdf:resource="http://purl.org/dc/dcmitype/StillImage"/>
<dc:title/>
</cc:Work>
</rdf:RDF>
</metadata>
<g transform="translate(0.02113153,-652.36218)">
<g style="letter-spacing:0px;word-spacing:0px;" font-weight="normal" transform="translate(9.5014353,-103.29342)" font-style="normal" font-stretch="normal" line-height="125%" font-size="23.68645096px" font-variant="normal" font-family="VomZom" fill="#333">
<path d="m-1.2744,762.27c4.011-0.0921,7.7759,3.1703,8.1996,7.1701,0.50672,3.5154-1.5613,7.166-4.8022,8.5927-1.9632,0.97471-4.1802,0.67515-6.2919,0.72495h-2.0631v6.6094h-3.2677c0.00659-5.0998-0.013246-10.2,0.010042-15.3,0.10697-3.7986,3.2179-7.2016,6.9738-7.7073,0.41081-0.0611,0.82622-0.0904,1.2415-0.0904zm0,13.219c2.3572,0.059,4.568-1.7801,4.9197-4.1152,0.46978-2.3507-1.0296-4.8766-3.322-5.5814-2.2139-0.78558-4.8777,0.24862-5.9588,2.3392-0.83897,1.4285-0.54096,3.1171-0.59663,4.691v2.6665h4.9576z"/>
<path d="m8.5014,762.19,3.2308,0,0,16.488-3.2308,0,0-16.488z"/>
<path d="m21.44,772.56,0.11776,0,4.5925,6.1234,4.0037,0-6.2411-8.4785,5.5346-8.0075-4.0037,0-3.886,5.6523-0.11776,0-3.886-5.6523-4.0037,0,5.5346,8.0075-6.2411,8.4785,4.0037,0z"/>
<path d="m37.474,762.19c3.2724-0.0645,6.4112,2.0792,7.6222,5.1057,0.6323,1.4057,0.62343,2.963,0.60314,4.472v6.91c-2.9161-0.01-5.833,0.0201-8.7487-0.0157-3.3523-0.1636-6.4178-2.6079-7.3776-5.8155-0.87986-2.7888-0.14882-6.0272,1.922-8.1097,1.5471-1.6004,3.7453-2.5679,5.9788-2.5469zm4.958,13.22c-0.01405-1.8333,0.02937-3.6684-0.0241-5.5004-0.19326-2.4561-2.4685-4.514-4.9335-4.4507-2.3436-0.0566-4.553,1.7616-4.9197,4.0818-0.42953,2.2266,0.84878,4.6529,2.9738,5.4838,1.3088,0.57082,2.7544,0.33545,4.1378,0.3855h2.7658z"/>
<path d="m55.538,762.27c3.8699-0.0954,7.4862,2.9495,8.1024,6.761,0.6992,3.6121-1.3414,7.5146-4.7051,9.0018-3.2872,1.5514-7.5139,0.55182-9.7743-2.2912-1.401-1.6503-2.0046-3.8446-1.8853-5.9841v-14.097h3.2677v6.6094h4.9946zm0,13.219c2.4818,0.0664,4.7506-2.0174,4.9324-4.4865,0.31136-2.4542-1.5078-4.9223-3.9368-5.3682-1.3432-0.18387-2.7076-0.0602-4.0605-0.0964h-1.9298c0.02099,1.8627-0.04451,3.7289,0.03764,5.5892,0.25958,2.4608,2.4848,4.4104,4.957,4.3619z"/>
<path d="m73.245,762.19c3.2724-0.0645,6.4112,2.0792,7.6222,5.1057,0.6323,1.4057,0.62343,2.963,0.60314,4.472v6.91c-2.9161-0.01-5.833,0.0201-8.7487-0.0157-3.3523-0.1636-6.4178-2.6079-7.3776-5.8155-0.87986-2.7888-0.14882-6.0272,1.922-8.1097,1.5471-1.6004,3.7453-2.5679,5.9788-2.5469zm4.9576,13.22c-0.01405-1.8333,0.02937-3.6684-0.0241-5.5004-0.19326-2.4561-2.4685-4.514-4.9335-4.4507-2.3436-0.0566-4.553,1.7616-4.9197,4.0818-0.42952,2.2266,0.84878,4.6529,2.9738,5.4838,1.3088,0.57082,2.7544,0.33545,4.1378,0.3855h2.7658z"/>
<path d="m99.458,762.23c-0.0066,5.0876,0.01323,10.176-0.01005,15.263-0.1186,4.004-3.5594,7.6027-7.5766,7.8118-0.76311,0.0404-1.5278,0.0158-2.2917,0.0226v-3.2678c1.3944-0.007,2.8862,0.13457,4.1212-0.65515,1.5426-0.86527,2.5229-2.6105,2.4882-4.3754-2.8966,2.3355-7.3871,2.2143-10.204-0.19653-2.0523-1.6568-3.1737-4.3219-3.0153-6.9446v-7.6578h3.2677c0.01501,2.9107-0.0307,5.8234,0.02409,8.7328,0.17645,2.3507,2.2347,4.3561,4.5887,4.4736,2.4288,0.24727,4.819-1.581,5.242-3.9801,0.1836-1.3451,0.06043-2.7111,0.09638-4.0659v-5.1605c1.0896,0.00001,2.1792,0.00003,3.2689,0.00004z"/>
</g>
<g transform="matrix(0.04136917,0,0,0.04154485,150.01494,652.33031)" fill="#FFF">
<g fill="#FFF">
<path fill="#FFF" d="m401.62,364.09l-107.1-107.1c44.79-59.38,39.29-149.57-11.76-203.54-49.03-54.763-136.58-69.26-200.22-31.973-61.191,33.974-95.324,109.78-78.721,178.03,15.619,71.332,83.855,127.43,157.33,126.38,33.883,0.16486,67.68-10.801,95.124-30.648,36.359,36.227,72.455,72.719,108.98,108.78,22.074,19.507,60.347-13.283,39.107-36.853l-2.74-3.08zm-239.06-76.5c-63.141,1.73-121.21-52.5-124.2-115.57-4.952-59.15,38.062-118.12,96.477-130.15,56.288-13.347,119.56,17.676,141.85,71.444,24.349,54.421,3.592,125.11-48.3,155.56-19.628,12.198-42.703,18.829-65.824,18.723z"/>
</g>
</g>
<g transform="matrix(0.05850359,0,0,0.05870907,0,752.32009)" fill="#FFF">
<g fill="#FFF">
<path fill="#FFF" d="m401.62,364.09l-107.1-107.1c44.79-59.38,39.29-149.57-11.76-203.54-49.03-54.763-136.58-69.26-200.22-31.973-61.191,33.974-95.324,109.78-78.721,178.03,15.619,71.332,83.855,127.43,157.33,126.38,33.883,0.16486,67.68-10.801,95.124-30.648,36.359,36.227,72.455,72.719,108.98,108.78,22.074,19.507,60.347-13.283,39.107-36.853l-2.74-3.08zm-239.06-76.5c-63.141,1.73-121.21-52.5-124.2-115.57-4.952-59.15,38.062-118.12,96.477-130.15,56.288-13.347,119.56,17.676,141.85,71.444,24.349,54.421,3.592,125.11-48.3,155.56-19.628,12.198-42.703,18.829-65.824,18.723z"/>
</g>
</g>
<g transform="matrix(0.04791873,0,0,0.04791873,50,745.32718)" fill="#636363">
<g fill="#636363">
<g fill="#636363">
<g>
<path fill="#636363" d="M41.013,228.82c-22.617,0-41.013-18.38-41.013-41,0-22.61,18.396-41.01,41.013-41.01s41.013,18.398,41.013,41.007c-0.001,22.62-18.396,41.007-41.013,41.007z"/>
</g>
<g>
<path fill="#636363" d="m185.51,228.82c-22.617,0-41.013-18.387-41.013-41.007,0-22.608,18.396-41.007,41.013-41.007,22.613,0,41.013,18.398,41.013,41.007-0.001,22.62-18.4,41.007-41.013,41.007z"/>
</g>
<g>
<path fill="#636363" d="m334.62,228.82c-22.613,0-41.013-18.387-41.013-41.007,0-22.608,18.399-41.007,41.013-41.007s41.013,18.398,41.013,41.007c0,22.62-18.399,41.007-41.013,41.007z"/>
</g>
</g>
</g>
</g>
<g transform="matrix(0.04136917,0,0,0.04154485,200.01494,652.33031)" fill="#636363">
<g fill="#636363">
<path fill="#636363" d="m401.62,364.09l-107.1-107.1c44.79-59.38,39.29-149.57-11.76-203.54-49.03-54.763-136.58-69.26-200.22-31.973-61.191,33.974-95.324,109.78-78.721,178.03,15.619,71.332,83.855,127.43,157.33,126.38,33.883,0.16486,67.68-10.801,95.124-30.648,36.359,36.227,72.455,72.719,108.98,108.78,22.074,19.507,60.347-13.283,39.107-36.853l-2.74-3.08zm-239.06-76.5c-63.141,1.73-121.21-52.5-124.2-115.57-4.952-59.15,38.062-118.12,96.477-130.15,56.288-13.347,119.56,17.676,141.85,71.444,24.349,54.421,3.592,125.11-48.3,155.56-19.628,12.198-42.703,18.829-65.824,18.723z"/>
</g>
</g>
<path d="m68.457,904.14c-0.67906,0.30125-1.4089,0.50485-2.1749,0.5963,0.78171-0.46865,1.3823-1.2107,1.6649-2.095-0.7317,0.43395-1.5421,0.74907-2.4046,0.91886-0.69073-0.73597-1.6749-1.1957-2.764-1.1957-2.4443,0-4.2411,2.281-3.6887,4.6496-3.1472-0.15788-5.9375-1.6655-7.8051-3.9564-0.99195,1.7016-0.51453,3.9285,1.1719,5.0557-0.62066-0.0196-1.2047-0.19002-1.7152-0.47371-0.0409,1.7544,1.2161,3.395,3.0372,3.7609-0.53292,0.14501-1.1167,0.17821-1.71,0.0648,0.48178,1.5044,1.8803,2.5992,3.5374,2.6297-1.592,1.2476-3.5972,1.8049-5.6063,1.5681,1.6758,1.0744,3.6663,1.7014,5.8048,1.7014,7.0305,0,11.003-5.9382,10.763-11.264,0.73995-0.53386,1.3819-1.2008,1.8896-1.9602z" fill="#555"/>
<path d="M2,907.27h-1.5708v2.564h1.5708v7.5321h3.0206v-7.5642h2.1074l0.22433-2.532h-2.3317v-1.4423c0-0.59702,0.12021-0.83338,0.6971-0.83338h1.6346v-2.6282h-2.0913c-2.2476,0-3.2609,0.98952-3.2609,2.8846v2.0192z" fill="#555"/>
<g fill-rule="nonzero" transform="matrix(1.4286303,0,0,1.4286303,-15.108847,560.60201)" filter="url(#filter3041)" fill="#FFF">
<path d="m120.47,279.12-4.8998,0,0-4.8998,4.8998,0,0,4.8998z"/>
<path d="m126.07,279.12-4.8978,0,0-4.8998,4.8978,0,0,4.8998z"/>
<path d="m120.47,284.72-4.8998,0,0-4.8998,4.8998,0,0,4.8998z"/>
<path d="m126.07,284.72-4.8978,0,0-4.8998,4.8978,0,0,4.8998z"/>
</g>
<g transform="translate(-136.57627,433.78591)" fill="#FFF">
<path d="m202.58,268.58h-5v2h-6v-2h-5c0,5,4,10.85,7,11.75v1.25c-1,0-2,0.5-2,1h6c0-0.5-1-1-2-1v-1.25c3-0.90037,7-6.75,7-11.75zm-4.0047,2.5383,0.005-0.53834,0-1,2.9446,0c-0.0871,0.80747-0.27672,1.6602-0.56688,2.5467-0.3835,1.1718-0.93931,2.3722-1.6073,3.4713-0.64247,1.0571-1.3718,1.9956-2.109,2.7141-0.0708,0.069-0.14128,0.1355-0.21141,0.19971,1.3256-2.6581,1.5175-5.9843,1.5453-7.3935zm-6.6568,7.1938c-0.73728-0.7185-1.4666-1.657-2.109-2.7141-0.66797-1.0991-1.2238-2.2995-1.6073-3.4713-0.29012-0.88644-0.47978-1.7392-0.56687-2.5467h2.9446v1l0.005,0.53834c0.0278,1.4092,0.21972,4.7355,1.5452,7.3935-0.0701-0.0642-0.14059-0.13073-0.21137-0.19973z" fill="#FFF"/>
</g>
<path d="m110.5,854.72c1.0454,0,1.9837-0.56905,2.625-0.99949v8.1442c-0.64132,0.43047-1.5796,0.99955-2.625,0.99955s-1.9837-0.30994-2.625-0.74041c-0.64132-0.4304-1.5796-0.74034-2.625-0.74034s-1.9836,0.53206-2.625,0.96245v-8.1442c0.64135-0.43044,1.5796-0.9625,2.625-0.9625s1.9837,0.30991,2.625,0.74035c0.64131,0.43046,1.5796,0.74039,2.625,0.74039zm-9.625-2.3557c0.48324,0,0.875,0.39175,0.875,0.875v13.125h-1.75v-13.125c0-0.48325,0.39175-0.875,0.875-0.875z" fill="#FFF"/>
<g transform="translate(1050.7744,716.30529)" fill="#636363">
<g fill="#636363" transform="translate(-954.77435,-14.539601)">
<g transform="matrix(0.39285714,0,0,0.41657989,2.4285714,45.80957)">
<rect height="4.801" width="56" y="11.491" x="4" fill="#636363"/>
</g>
<g transform="matrix(0.39285714,0,0,0.41657989,2.4285715,52.80957)">
<rect height="4.801" width="56" y="11.491" x="4" fill="#636363"/>
</g>
<g transform="matrix(0.39285714,0,0,0.41657984,2.4285714,59.809571)">
<rect height="4.801" width="56" y="11.491" x="4" fill="#636363"/>
</g>
</g>
</g>
<g transform="translate(420,1051.3622)" fill="#FFF">
<rect height="2" width="15" y="-335" x="-420"/>
<rect height="8" width="5" y="-349" x="-415"/>
<rect clip-path="url(#clipPath3198)" transform="translate(0.1109314,0)" height="10.048" width="15" y="-342" x="-420.11"/>
</g>
<g transform="matrix(0.50744448,0,0,0.50744448,99.016959,702.25372)" fill="#FFF">
<path d="M12.356,25.179c-0.957,0.144-1.909,0.335-2.8703,0.446-1.3071,0.077-2.5435-0.98-2.6816-2.28-0.0713-0.474-0.1427-0.949-0.2141-1.423-1.4923,1.4997-2.9999,2.985-4.4825,4.4937-0.41767,0.505-0.012837,1.3298,0.63057,1.3481,0.8946,0.167,1.7892,0.334,2.6839,0.501,0.18637,0.97032,0.35269,1.9451,0.55189,2.9126,0.1798,0.63111,1.0897,0.7644,1.4683,0.24227,1.8903-1.89,3.7808-3.781,5.6708-5.671-0.24-0.201-0.416-0.546-0.757-0.57z"/>
<path d="m20.394,24.151c1.0235,0.11523,2.0411,0.4574,3.0708,0.38312,0.98523-0.18893,1.2388-1.2285,1.3016-2.0826,0.2261-0.98973,0.03624-2.3327,1.1444-2.8314,0.87356-0.49517,1.8759-0.8028,2.6418-1.4571,0.68732-0.73084,0.28159-1.7223-0.16779-2.4512-0.383-0.919-1.303-1.852-0.772-2.896,0.425-0.937,1.067-1.798,1.312-2.8,0.126-0.9959-0.787-1.5583-1.579-1.8827-0.871-0.5215-2.207-0.7553-2.34-1.963-0.201-0.9833-0.184-2.031-0.568-2.9613-0.484-0.879-1.551-0.8005-2.383-0.5975-0.992,0.0811-2.165,0.6683-2.994-0.1605-0.753-0.691-1.373-1.5554-2.237-2.1045-0.946-0.46013-1.726,0.37327-2.306,1.0116-0.734,0.665-1.397,1.8112-2.559,1.503-0.975-0.1088-1.944-0.441-2.9248-0.3593-0.9848,0.1893-1.2388,1.2285-1.3015,2.0827-0.2262,0.9898-0.0362,2.3327-1.1444,2.8314-0.8734,0.4952-1.8755,0.8031-2.6413,1.4573-0.6878,0.73-0.2819,1.7218,0.1675,2.4498,0.3836,0.919,1.304,1.852,0.7725,2.896-0.4253,0.93735-1.0662,1.7984-1.3115,2.8008-0.12552,0.99538,0.78578,1.5589,1.5787,1.8828,0.87163,0.52148,2.2076,0.75502,2.3408,1.9631,0.20073,0.98344,0.18397,2.0312,0.56831,2.9617,0.48349,0.8794,1.5505,0.79856,2.3826,0.5965,0.99285-0.08048,2.1667-0.66805,2.9952,0.16213,0.75229,0.69159,1.3729,1.5516,2.2356,2.1031,1.0044,0.48095,1.7858-0.46465,2.4071-1.1156,0.676-0.602,1.25-1.628,2.31-1.422zm-4.144-1.39c-4.36,0.06-8.4359-3.293-9.2392-7.575-0.9198-4.122,1.3308-8.6458,5.1522-10.429,3.707-1.896,8.563-0.845,11.217,2.3435,2.88,3.2139,3.069,8.4239,0.426,11.836-1.742,2.365-4.615,3.832-7.556,3.825z"/>
<path d="M16.25,5.174c-4.444,0.028-8.05,3.648-8.05,8.097,0,4.447,3.606,8.068,8.05,8.096,4.444-0.027,8.05-3.648,8.05-8.096,0-4.449-3.606-8.069-8.05-8.097z"/>
<path d="m30.317,26.329l-4.407-4.407c-0.11864,0.6611-0.15493,1.3408-0.35095,1.9849-0.40704,1.1974-1.7618,1.9476-2.9936,1.666-0.807-0.131-1.614-0.263-2.421-0.394-0.34257,0.02724-0.516,0.36698-0.757,0.57l5.755,5.755c0.4635,0.51272,1.4,0.15845,1.4294-0.52577,0.169-0.904,0.338-1.809,0.507-2.713,0.97-0.186,1.945-0.353,2.913-0.552,0.578-0.178,0.766-0.966,0.326-1.384z"/>
</g>
<g transform="matrix(0.10384185,0,0,0.10516697,46.365535,1001.2654)" fill="#FFF">
<path d="m147.11,83.428h-5.215c-0.761,0-1.386,0.244-1.873,0.733-0.49,0.488-0.734,1.113-0.734,1.874v26.071c0,3.585-1.275,6.653-3.828,9.206s-5.622,3.828-9.207,3.828h-67.796c-3.585,0-6.654-1.275-9.207-3.828s-3.829-5.621-3.829-9.206v-67.79c0-3.585,1.276-6.653,3.829-9.206s5.622-3.829,9.207-3.829h57.356c0.762,0,1.387-0.245,1.875-0.733,0.488-0.489,0.732-1.113,0.732-1.874v-5.215c0-0.76-0.244-1.385-0.732-1.873-0.488-0.489-1.113-0.733-1.875-0.733h-57.356c-6.463,0-11.99,2.295-16.58,6.884-4.589,4.59-6.884,10.117-6.884,16.58v67.786c0,6.463,2.295,11.99,6.884,16.578,4.59,4.59,10.117,6.886,16.58,6.886h67.786c6.463,0,11.99-2.296,16.58-6.886,4.59-4.588,6.885-10.115,6.885-16.578v-26.074c0-0.761-0.244-1.386-0.734-1.875-0.489-0.489-1.114-0.733-1.874-0.733z"/>
<path d="m179.45,11.977c-1.032-1.032-2.256-1.548-3.667-1.548h-41.71c-1.412,0-2.635,0.516-3.666,1.548-1.032,1.032-1.549,2.254-1.549,3.666s0.517,2.635,1.549,3.667l14.339,14.339-53.12,53.121c-0.544,0.543-0.815,1.168-0.815,1.873,0,0.707,0.272,1.332,0.815,1.875l9.288,9.287c0.543,0.543,1.168,0.814,1.874,0.814s1.331-0.271,1.874-0.814l53.12-53.12,14.34,14.339c1.031,1.032,2.254,1.548,3.666,1.548s2.635-0.516,3.667-1.548c1.03-1.033,1.55-2.255,1.55-3.667v-41.715c0-1.413-0.518-2.634-1.549-3.666z"/>
</g>
<path stroke-linejoin="miter" d="m207,903c-3.5158,0-6.3662,2.4386-6.3662,5.4472,0,1.5688,0.77986,2.9792,2.0205,3.9731-0.23317,0.63439-0.62866,1.464-1.2995,2.3121,1.2725,0,2.9094-0.176,4.1707-0.99054,0.47428,0.0972,0.96607,0.15251,1.4746,0.15251,3.5157,0,6.3662-2.4387,6.3662-5.4472s-2.8505-5.4472-6.3662-5.4472z" stroke="#FFF" stroke-linecap="butt" stroke-miterlimit="4" stroke-dasharray="none" stroke-width="1.2676301" fill="none"/>
<g transform="translate(211,624.3941)" fill="#FFF">
<path d="m-47.875,380.54,0,8.5714-10.5,0,0-8.5714,10.5,0m0.875-0.85714-12.25,0,0,10.286,12.25,0,0-10.286zm-14-1.7143,0,10.286,0.875,0,0-9.4286,11.375,0,0-0.85714z"/>
<rect height="9.3944" width="11.06" y="380.2" x="-58.687"/>
</g>
<path d="m159.83,833.36c0,1.0869-0.78243,1.9679-1.7476,1.9679-0.96516,0-1.7476-0.88103-1.7476-1.9679s0.78241-1.9679,1.7476-1.9679c0.96516,0,1.7476,0.88108,1.7476,1.9679zm6.17-0.32s-2.835,5.3207-7.9903,5.3207c-4.7864,0-8.0097-5.3207-8.0097-5.3207s2.9644-4.6793,8.0097-4.6793c5.1295,0,7.9903,4.6793,7.9903,4.6793zm-4.8155,0.32073c0-1.9322-1.391-3.4985-3.1068-3.4985s-3.1068,1.5663-3.1068,3.4985,1.391,3.4985,3.1068,3.4985,3.1068-1.5663,3.1068-3.4985z" fill="#FFF"/>
<g transform="matrix(0.75,0,0,0.75,515.02993,1061.5889)" fill="#666">
<g transform="matrix(0.89912845,0,0,0.91666622,-42.405969,-23.358427)" fill="#666">
<rect height="9.5346" width="5.9591" y="-351.58" x="-414.04"/>
<rect clip-path="url(#clipPath3198)" transform="matrix(1.1918262,0,0,1.1319816,80.699222,44.289746)" height="10.048" width="15" y="-342" x="-420.11"/>
</g>
</g>
<g transform="matrix(0.60000081,0,0,0.60000081,103.28478,457.59893)" fill="#666">
<path d="m740.47,421.25-7.4122,6.9309,1.5074,10.035-8.8821-4.9076-9.0782,4.5347,1.9227-9.964-7.1181-7.2326,10.07-1.2504,4.679-9.0047,4.3012,9.1912z" transform="matrix(0.72270652,-0.01110154,0.01111734,0.72214166,-357.62493,244.63885)" fill="#666"/>
</g>
<path d="m205.92,752.36c-3.271,0-5.9231,2.2864-5.9231,5.1071,0,1.4709,0.72558,2.7932,1.8798,3.7251-0.21694,0.59479-0.58491,1.3726-1.2091,2.1678,1.1839,0,2.7068-0.165,3.8804-0.92871,0.44127,0.0911,0.89883,0.143,1.3719,0.143,3.271,0,5.9231-2.2864,5.9231-5.1072,0-2.8207-2.6521-5.1071-5.9231-5.1071z" fill="#666"/>
<g transform="matrix(0.23872046,0,0,0.23872046,198.61256,999.33831)" fill="#FFF">
<path d="m5.812,26.104v24.453c0,2.209,1.791,4,4,4h43.708c2.209,0,4-1.791,4-4v-24.453h-51.708z"/>
<path d="m57.521,21.333c0-2.209-1.791-4-4-4h-21.521c-2.209,0-4.448-1.045-5-2.333-0.552-1.289-2.791-2.333-5-2.333h-10.188c-2.209,0-4.448,1.045-5,2.333-0.552,1.289-1,4.124-1,6.333v0.771h51.708v-0.771z"/>
</g>
<g transform="matrix(0.22,0,0,0.21666594,148.9,802.36212)" fill="#FFF">
<g fill="#FFF">
<path fill="#FFF" d="M53.479,27.435,10.672,0.915c-3.119-2.047-5.672-0.541-5.672,3.346v51.48c0,3.885,2.553,5.391,5.672,3.346l42.807-26.52s1.521-1.07,1.521-2.566-1.521-2.566-1.521-2.566z"/>
</g>
</g>
<path stroke-linejoin="round" d="m158.59,904.65,3.1242,3.1238-7.4977,7.4977-3.1242-3.1242,7.4977-7.4973zm3.7173,2.4987-3.0926-3.0926,1.3255-1.3251c0.48814-0.48813,1.2793-0.48813,1.7671,0l1.3255,1.3251c0.48813,0.48814,0.48813,1.2793,0,1.7675l-1.3255,1.3251zm-11.996,9.2162-0.31253-0.31253,0.82001-2.6163,2.1088,2.1088-2.6163,0.82001z" stroke-width="0.2" fill="#FFF"/>
<path d="m106.36,802.36c-4.2302,0-6.3632,2.9349-6.3632,5.3822,0,1.4819,0.57981,2.8003,1.8233,3.2916,0.20385,0.0805,0.38658,0.003,0.44568-0.21569,0.0409-0.1512,0.13851-0.53266,0.18192-0.6914,0.0596-0.21612,0.0365-0.29191-0.12804-0.48026-0.35854-0.40929-0.58772-0.93914-0.58772-1.6896,0-2.1774,1.6835-4.1266,4.3837-4.1266,2.391,0,3.7046,1.4138,3.7046,3.3018,0,2.4842-1.1362,4.581-2.8228,4.581-0.93152,0-1.6287-0.74544-1.4053-1.6596,0.26768-1.0915,0.78609-2.2694,0.78609-3.0573,0-0.70522-0.39122-1.2935-1.2009-1.2935-0.95217,0-1.7171,0.95323-1.7171,2.2301,0,0.81324,0.28402,1.3633,0.28402,1.3633s-0.97438,3.9953-1.1452,4.6949c-0.34024,1.3934-0.0513,3.1017-0.0267,3.2742,0.0143,0.10225,0.15009,0.12655,0.21149,0.0493,0.0878-0.11093,1.222-1.4658,1.6075-2.8194,0.1091-0.38329,0.62633-2.3683,0.62633-2.3683,0.30933,0.57099,1.2134,1.0739,2.1749,1.0739,2.8622,0,4.8041-2.525,4.8041-5.9049,0-2.5557-2.237-4.9358-5.6369-4.9358z" fill="#FFF"/>
<path d="m208.6,832.86c0,0.97821-0.68462,1.7711-1.5291,1.7711-0.84451,0-1.5291-0.79293-1.5291-1.7711s0.68461-1.7711,1.5291-1.7711c0.84452,0,1.5291,0.79297,1.5291,1.7711zm5.4-0.29s-2.4806,4.7887-6.9915,4.7887c-4.1881,0-7.0085-4.7887-7.0085-4.7887s2.5938-4.2113,7.0085-4.2113c4.4883,0,6.9915,4.2113,6.9915,4.2113zm-4.2136,0.28866c0-1.739-1.2171-3.1487-2.7184-3.1487-1.5014,0-2.7184,1.4097-2.7184,3.1487s1.2171,3.1487,2.7184,3.1487c1.5014,0,2.7184-1.4097,2.7184-3.1487z" fill="#666"/>
<path d="m68.457,954.14c-0.67906,0.30125-1.4089,0.50485-2.1749,0.5963,0.78171-0.46865,1.3823-1.2107,1.6649-2.095-0.7317,0.43395-1.5421,0.74907-2.4046,0.91886-0.69073-0.73597-1.6749-1.1957-2.764-1.1957-2.4443,0-4.2411,2.281-3.6887,4.6496-3.1472-0.15788-5.9375-1.6655-7.8051-3.9564-0.99195,1.7016-0.51453,3.9285,1.1719,5.0557-0.62066-0.0196-1.2047-0.19002-1.7152-0.47371-0.0409,1.7544,1.2161,3.395,3.0372,3.7609-0.53292,0.14501-1.1167,0.17821-1.71,0.0648,0.48178,1.5044,1.8803,2.5992,3.5374,2.6297-1.592,1.2476-3.5972,1.8049-5.6063,1.5681,1.6758,1.0744,3.6663,1.7014,5.8048,1.7014,7.0305,0,11.003-5.9382,10.763-11.264,0.73995-0.53386,1.3819-1.2008,1.8896-1.9602z" fill="#FFF"/>
<path d="M2,957.27h-1.5708v2.564h1.5708v7.5321h3.0206v-7.5642h2.1074l0.22433-2.532h-2.3317v-1.4423c0-0.59702,0.12021-0.83338,0.6971-0.83338h1.6346v-2.6282h-2.0913c-2.2476,0-3.2609,0.98952-3.2609,2.8846v2.0192z" fill="#FFF"/>
<g transform="matrix(0.57142857,0,0,0.57142857,147.71429,751.21932)" fill="#666">
<g fill="#666">
<path fill="#666" d="m24,18c0,4.414-3.586,8-8,8s-8-3.586-8-8,3.586-8,8-8h4l0.023,4.02,6.012-6.02-6.012-6v4h-4.023c-6.625,0-12,5.375-12,12s5.375,12,12,12,12-5.375,12-12h-4z"/>
</g>
</g>
<path stroke-linejoin="round" d="m156.75,704.16,2.4547,2.4544-5.891,5.891-2.4547-2.4547,5.891-5.8907zm2.9207,1.9633-2.4299-2.4299,1.0415-1.0412c0.38354-0.38353,1.0052-0.38353,1.3884,0l1.0415,1.0412c0.38353,0.38353,0.38353,1.0052,0,1.3887l-1.0415,1.0412zm-9.4253,7.2413-0.24556-0.24556,0.64429-2.0557,1.6569,1.6569-2.0557,0.64429z" stroke-width="0.2" fill="#808080"/>
<g transform="translate(200.0042,702.36218)">
<g fill="#FFF" transform="translate(-1.9516643,-31.742967)">
<g fill="#FFF" transform="matrix(0.36839197,0,0,0.36839197,1.2328988,28.879014)">
<g transform="matrix(0.92648698,0,0,0.92648698,0.1256236,0.60319081)">
<path d="m43.2,26.7c-1.56-1.58-3.63-2.54-5.82-2.74,1.89-1.7,3.09-4.16,3.09-6.91,0-5.14-4.17-9.31-9.31-9.31-4.91,0-8.93,3.8-9.28,8.62,4.37,1.89,7.44,6.24,7.44,11.3,0,1.85-0.42,3.65-1.2,5.29,1.12,0.588,2.16,1.35,3.07,2.26,2.32,2.33,3.64,5.56,3.61,8.85l-0.002,0.067-0.002,0.057-0.082,1.56h11.1l0.092-12.3c0.019-2.52-0.966-4.93-2.74-6.71z"/>
<path d="m23.2,34.6c1.89-1.7,3.09-4.16,3.09-6.91,0-5.14-4.17-9.31-9.31-9.31s-9.31,4.17-9.31,9.31c0,2.74,1.19,5.2,3.08,6.91-4.84,0.375-8.66,4.38-8.7,9.32l-0.092,1.85h29.7l0.092-1.71c0.018-2.51-0.968-4.93-2.74-6.71-1.57-1.58-3.63-2.54-5.82-2.74z"/>
</g>
</g>
</g>
</g>
<g transform="matrix(0.03153374,0,0,0.03125,-0.07265374,1002.3622)" fill="#636363">
<g fill="#636363">
<path fill="#636363" d="m448.01,256c0-12-1.25-23.656-3.344-35.031l65.031-37.531-64-110.88-65.031,37.563c-17.73-15.12-38.26-27.026-60.66-34.964v-75.156h-128v75.156c-22.43,7.938-42.94,19.844-60.66,34.964l-65.046-37.557-64,110.88,65.047,37.56c-2.109,11.344-3.344,23-3.344,35,0,11.969,1.234,23.625,3.344,35l-65.047,37.562,64,110.88,65.063-37.562c17.719,15.156,38.219,27.031,60.641,34.969v75.15h128v-75.156c22.406-7.938,42.939-19.812,60.625-34.969l65.064,37.562,64-110.88-65.031-37.53c2.091-11.376,3.341-23.063,3.341-35.032zm-192,96c-53.031,0-96-42.969-96-96s42.969-96,96-96c53.032,0,96,42.969,96,96s-42.968,96-96,96z"/>
</g>
</g>
<g stroke-linejoin="round" fill-rule="evenodd" transform="matrix(1.4736221,0,0,1.4736221,100,898.07247)" stroke-miterlimit="1.41400003" fill="#555">
<g fill="#555">
<path fill="#555" d="m5.09,7.273,0,1.745,2.89,0c-0.116,0.75-0.873,2.197-2.887,2.197-1.737,0-3.155-1.44-3.155-3.215s1.415-3.215,3.152-3.215c0.99,0,1.652,0.422,2.03,0.786l1.382-1.33c-0.887-0.83-2.037-1.33-3.41-1.33-2.817-0.001-5.092,2.273-5.092,5.089s2.276,5.09,5.09,5.09c2.94,0,4.888-2.065,4.888-4.974,0-0.334-0.036-0.59-0.08-0.843zm9.8391,0-1.455,0,0-1.455-1.455,0,0,1.455-1.454,0,0,1.454,1.455,0,0,1.455,1.455,0,0-1.455,1.454,0"/>
</g>
</g>
<g stroke-linejoin="round" fill-rule="evenodd" transform="matrix(1.4736221,0,0,1.4736221,100,948.07247)" stroke-miterlimit="1.41400003" fill="#FFF">
<g fill="#FFF">
<path d="m5.09,7.273,0,1.745,2.89,0c-0.116,0.75-0.873,2.197-2.887,2.197-1.737,0-3.155-1.44-3.155-3.215s1.415-3.215,3.152-3.215c0.99,0,1.652,0.422,2.03,0.786l1.382-1.33c-0.887-0.83-2.037-1.33-3.41-1.33-2.817-0.001-5.092,2.273-5.092,5.089s2.276,5.09,5.09,5.09c2.94,0,4.888-2.065,4.888-4.974,0-0.334-0.036-0.59-0.08-0.843zm9.8391,0-1.455,0,0-1.455-1.455,0,0,1.455-1.454,0,0,1.454,1.455,0,0,1.455,1.455,0,0-1.455,1.454,0" fill="#FFF"/>
</g>
</g>
<g transform="matrix(0.25000391,0,0,0.25000391,100.125,1002.2372)">
<circle d="m 61.421001,32.873001 c 0,16.621562 -13.474438,30.096001 -30.096,30.096001 -16.621562,0 -30.0960009,-13.474439 -30.0960009,-30.096001 0,-16.621562 13.4744389,-30.0960006 30.0960009,-30.0960006 16.621562,0 30.096,13.4744386 30.096,30.0960006 z" cy="32.873" cx="31.325" r="30.096" fill="#FFF"/>
<path fill="#b3b3b3" d="m31.5,14.08c-10.565,0-13.222,9.969-13.222,18.42,0,8.452,2.656,18.42,13.222,18.42,10.564,0,13.221-9.968,13.221-18.42,0-8.451-2.657-18.42-13.221-18.42zm0,6.946c0.429,0,0.82,0.066,1.188,0.157,0.761,0.656,1.133,1.561,0.403,2.823l-7.036,12.93c-0.216-1.636-0.247-3.24-0.247-4.437,0-3.722,0.258-11.473,5.692-11.473zm5.266,5.961c0.373,1.984,0.426,4.056,0.426,5.513,0,3.723-0.258,11.475-5.69,11.475-0.428,0-0.822-0.045-1.188-0.136-0.07-0.021-0.134-0.043-0.202-0.067-0.112-0.032-0.23-0.068-0.336-0.11-1.21-0.515-1.972-1.446-0.874-3.093l7.864-13.582z"/>
<path fill="#b3b3b3" d="M31.433,0.5c-8.877,0-16.359,3.09-22.454,9.3-3.087,3.087-5.443,6.607-7.082,10.532-1.6,3.887-2.397,7.939-2.397,12.168,0,4.268,0.797,8.32,2.397,12.168,1.6,3.85,3.921,7.312,6.969,10.396,3.085,3.049,6.549,5.399,10.398,7.037,3.886,1.602,7.939,2.398,12.169,2.398,4.229,0,8.34-0.826,12.303-2.465,3.962-1.639,7.496-3.994,10.621-7.081,3.011-2.933,5.289-6.297,6.812-10.106,1.561-3.847,2.331-7.964,2.331-12.347,0-4.343-0.77-8.454-2.33-12.303-1.562-3.885-3.848-7.32-6.857-10.33-6.288-6.248-13.928-9.367-22.88-9.367zm0.134,5.759c7.238,0,13.412,2.566,18.554,7.709,2.477,2.477,4.375,5.31,5.67,8.471,1.296,3.162,1.949,6.518,1.949,10.061,0,7.354-2.516,13.454-7.506,18.33-2.592,2.516-5.502,4.447-8.74,5.781-3.2,1.334-6.498,1.994-9.927,1.994-3.468,0-6.788-0.653-9.949-1.948-3.163-1.334-6.001-3.238-8.516-5.716-2.515-2.514-4.455-5.353-5.826-8.516-1.333-3.199-2.017-6.498-2.017-9.927,0-3.467,0.684-6.787,2.017-9.949,1.371-3.2,3.312-6.074,5.826-8.628,4.99-5.103,11.15-7.662,18.465-7.662z"/>
</g>
<g transform="matrix(1.1875,0,0,1.5,150,847.86218)" fill="#777">
<g fill="#777">
<path fill="#777" d="M10,6c-4.5,0-8,1-10,6,3-2.5,6-3,10-2v3l6-5-6-5v3z"/>
</g>
</g>
<g transform="matrix(0.03060983,0,0,0.02777778,48.133424,802.36218)" fill="#636363">
<g fill="#636363">
<g fill="#636363">
<path d="M306,325.99c90.56-0.01,123.15-90.68,131.68-165.17,10.51-91.76-32.88-160.82-131.68-160.82-98.78,0-142.19,69.055-131.68,160.82,8.54,74.484,41.114,165.18,131.68,165.17z"/>
<path d="m550.98,541.91c-0.99-28.904-4.377-57.939-9.421-86.393-6.111-34.469-13.889-85.002-43.983-107.46-17.404-12.988-39.941-17.249-59.865-25.081-9.697-3.81-18.384-7.594-26.537-11.901-27.518,30.176-63.4,45.962-105.19,45.964-41.774,0-77.652-15.786-105.17-45.964-8.153,4.308-16.84,8.093-26.537,11.901-19.924,7.832-42.461,12.092-59.863,25.081-30.096,22.463-37.873,72.996-43.983,107.46-5.045,28.454-8.433,57.489-9.422,86.393-0.766,22.387,10.288,25.525,29.017,32.284,23.453,8.458,47.666,14.737,72.041,19.884,47.077,9.941,95.603,17.582,143.92,17.924,48.318-0.343,96.844-7.983,143.92-17.924,24.375-5.145,48.59-11.424,72.041-19.884,18.736-6.757,29.789-9.895,29.023-32.284z"/>
</g>
</g>
</g>
<g transform="matrix(0.08872485,0,0,0.08872485,0,1052.3622)" fill="#FFF">
<g fill="#FFF">
<path d="M122.41,0h-75.756c-25.725,0-46.654,20.93-46.654,46.655v75.752c0,25.726,20.929,46.655,46.654,46.655h75.752c25.727,0,46.656-20.93,46.656-46.655v-75.745c-0.01-25.725-20.94-46.655-46.66-46.655zm31.657,122.41c0,17.455-14.201,31.655-31.656,31.655h-75.756c-17.454,0-31.654-14.2-31.654-31.65v-75.755c0-17.454,14.2-31.655,31.654-31.655h75.752c17.455,0,31.656,14.201,31.656,31.655v75.752z"/>
<path d="m84.531,40.97c-24.021,0-43.563,19.542-43.563,43.563,0,24.02,19.542,43.561,43.563,43.561s43.563-19.541,43.563-43.561c0-24.021-19.542-43.563-43.563-43.563zm0,72.123c-15.749,0-28.563-12.812-28.563-28.561,0-15.75,12.813-28.563,28.563-28.563s28.563,12.813,28.563,28.563c0,15.749-12.814,28.561-28.563,28.561z"/>
<path d="m129.92,28.251c-2.89,0-5.729,1.17-7.77,3.22-2.051,2.04-3.23,4.88-3.23,7.78,0,2.891,1.18,5.73,3.23,7.78,2.04,2.04,4.88,3.22,7.77,3.22,2.9,0,5.73-1.18,7.78-3.22,2.05-2.05,3.22-4.89,3.22-7.78,0-2.9-1.17-5.74-3.22-7.78-2.04-2.05-4.88-3.22-7.78-3.22z"/>
</g>
</g>
<g transform="matrix(0.75446896,0,0,0.70000081,83.982665,578.70242)" fill="#FFF">
<path fill="#FFF" d="m-80.976,409.09-3.8289,0.0646,0.0398-9.1331s3.2595,0.26525,4.0532-0.10662c0.66684-0.18645,5.0815-2.7568,6.4152-4.235,1.126-1.0899,1.5106-2.2043,1.9472-3.6491,0.34669-1.4582,1.614-1.1446,2.169-0.79879,0.7252,0.45194,0.8136,1.4626,0.73814,2.2904-0.0961,0.62887-0.3635,1.6066-0.79984,2.4904-0.33605,0.6807-0.8936,1.2652-1.027,1.5049-0.17007,0.29424-0.85248,0.86421-0.58683,0.95888,1.4522,0.35035,2.123,0.44751,4.1879,1.0388,0.77862,0.46173,0.97001,0.59267,1.1898,1.4746,0.16225,0.90722-0.29459,1.9649-0.99658,2.6442-0.13336,0.0799-0.73403,0.89274-0.73403,0.89274s-1.554,4.721-2.3666,5.7226c-0.51681,0.49683-0.87112,0.61494-1.4671,0.69253-0.37344,0-1.9739-0.0799-3.7878-0.31964-2.1846-0.36766-3.6134-1.4839-5.1455-1.5325z"/>
</g>
<g transform="matrix(0.70000061,0,0,0.70000061,-42.834374,479.30523)" fill="#FFF">
<path d="m740.47,421.25-7.4122,6.9309,1.5074,10.035-8.8821-4.9076-9.0782,4.5347,1.9227-9.964-7.1181-7.2326,10.07-1.2504,4.679-9.0047,4.3012,9.1912z" fill="#FFF" transform="matrix(0.72270652,-0.01110154,0.01111734,0.72214166,-357.62493,244.63885)"/>
</g>
<g transform="matrix(0.65446884,0,0,0.60000071,255.50216,617.79666)" fill="#666">
<path fill="#666" d="m-80.976,409.09-3.8289,0.0646,0.0398-9.1331s3.2595,0.26525,4.0532-0.10662c0.66684-0.18645,5.0815-2.7568,6.4152-4.235,1.126-1.0899,1.5106-2.2043,1.9472-3.6491,0.34669-1.4582,1.614-1.1446,2.169-0.79879,0.7252,0.45194,0.8136,1.4626,0.73814,2.2904-0.0961,0.62887-0.3635,1.6066-0.79984,2.4904-0.33605,0.6807-0.8936,1.2652-1.027,1.5049-0.17007,0.29424-0.85248,0.86421-0.58683,0.95888,1.4522,0.35035,2.123,0.44751,4.1879,1.0388,0.77862,0.46173,0.97001,0.59267,1.1898,1.4746,0.16225,0.90722-0.29459,1.9649-0.99658,2.6442-0.13336,0.0799-0.73403,0.89274-0.73403,0.89274s-1.554,4.721-2.3666,5.7226c-0.51681,0.49683-0.87112,0.61494-1.4671,0.69253-0.37344,0-1.9739-0.0799-3.7878-0.31964-2.1846-0.36766-3.6134-1.4839-5.1455-1.5325z"/>
</g>
<path d="m227,902.36c-3.8658,0-7,2.7021-7,6.0357,0,1.7383,0.85751,3.3011,2.2216,4.4024-0.25638,0.70293-0.69125,1.6222-1.4289,2.5619,1.3991,0,3.199-0.195,4.5859-1.0976,0.5215,0.10771,1.0623,0.169,1.6214,0.169,3.8657,0,7-2.7021,7-6.0357s-3.1342-6.0357-7-6.0357z" fill="#FFF"/>
<g transform="matrix(0.68297152,0,0,0.63418784,55.711028,655.83097)" stroke="#FFF">
<path d="m-76.779,329.08-3.8289,0.0646,0.0398-9.1331s3.2595,0.26525,4.0532-0.10662c0.66684-0.18645,5.0815-2.7568,6.4152-4.235,1.126-1.0899,1.5106-2.2043,1.9472-3.6491,0.34669-1.4582,1.614-1.1446,2.169-0.79879,0.7252,0.45194,0.8136,1.4626,0.73814,2.2904-0.0961,0.62887-0.3635,1.6066-0.79984,2.4904-0.33605,0.6807-0.8936,1.2652-1.027,1.5049-0.17007,0.29424-0.85248,0.86421-0.58683,0.95888,1.4522,0.35035,2.123,0.44751,4.1879,1.0388,0.77862,0.46173,0.97001,0.59267,1.1898,1.4746,0.16225,0.90722-0.29459,1.9649-0.99658,2.6442-0.13336,0.0799-0.73403,0.89274-0.73403,0.89274s-1.554,4.721-2.3666,5.7226c-0.51681,0.49683-0.87112,0.61494-1.4671,0.69253-0.37344,0-1.9739-0.0799-3.7878-0.31964-2.1846-0.36766-3.6134-1.4839-5.1455-1.5325z" stroke="#FFF" stroke-miterlimit="4" stroke-dasharray="none" stroke-width="2" fill="none"/>
</g>
<g transform="matrix(0.63636435,0,0,0.63636435,13.925528,504.9485)" stroke="#FFF">
<path stroke-linejoin="round" d="m740.47,421.25-7.4122,6.9309,1.5074,10.035-8.8821-4.9076-9.0782,4.5347,1.9227-9.964-7.1181-7.2326,10.07-1.2504,4.679-9.0047,4.3012,9.1912z" stroke-dashoffset="0" transform="matrix(0.72270652,-0.01110154,0.01111734,0.72214166,-461.12836,258.63599)" stroke="#FFF" stroke-miterlimit="4" stroke-dasharray="none" stroke-width="2.76812983" fill="none"/>
</g>
</g>
</svg>
